<svg width="633" height="36" viewBox="0 0 633 36" fill="none" xmlns="http://www.w3.org/2000/svg">
<path d="M324.214 23.8485L324.819 23.3969C325.096 23.1901 325.266 22.8698 325.282 22.5243L325.777 11.4929L331.696 6.18043C332.14 5.78206 332.207 5.11096 331.85 4.63287L331.647 4.36028C331.291 3.88219 330.628 3.75487 330.12 4.06669L323.34 8.22474L313.086 6.17632C312.766 6.11227 312.433 6.18731 312.171 6.38274L311.601 6.80802C310.882 7.34388 311.023 8.45872 311.852 8.79914L318.765 11.6371L314.72 15.0859C314.483 15.2873 314.176 15.385 313.867 15.3567L311.042 15.0991C310.939 15.0897 310.834 15.0899 310.737 15.1257C310.659 15.1548 310.584 15.1951 310.516 15.2456C309.992 15.6366 310.063 16.4424 310.647 16.7364L313.351 18.0902C313.524 18.1766 313.642 18.3436 313.665 18.5353L313.993 21.1983C314.111 21.8574 314.882 22.1619 315.419 21.7616C315.465 21.7266 315.509 21.6873 315.548 21.6442C315.622 21.5616 315.663 21.4554 315.691 21.3477L316.453 18.4872C316.524 18.2202 316.689 17.9876 316.917 17.8318L321.202 14.9053L322.381 23.0778C322.498 23.9492 323.509 24.3741 324.214 23.8485Z" fill="black"/>
<line x1="311.013" y1="10.6305" x2="301.862" y2="17.4552" stroke="black"/>
<line x1="319.953" y1="21.2549" x2="314.724" y2="25.1547" stroke="black"/>
<line x1="309.849" y1="18.6184" x2="304.62" y2="22.5182" stroke="black"/>
<line y1="35.1194" x2="633" y2="35.1194" stroke="black" stroke-width="1.5"/>
</svg>
